<svg width="59" height="47" viewBox="0 0 59 47" fill="none" xmlns="http://www.w3.org/2000/svg">
<path fill-rule="evenodd" clip-rule="evenodd" d="M7.01646 24C8.02469 24 8.62963 24.6051 9.03292 25.412C16.6955 25.0085 25.7695 26.0171 31.0123 27.8324C33.0288 28.4376 37.0617 30.2529 34.8436 33.0768C31.214 36.9093 17.3004 37.5144 12.4609 41.952C10.4444 43.7674 16.2922 44.5742 17.0988 44.7759C25.1646 45.9861 39.6831 45.5827 49.9671 43.3639C49.9671 42.3554 50.9753 41.5486 51.9835 41.5486C53.1934 41.5486 54 42.3554 54 43.5657C54 44.7759 53.1934 45.5827 51.9835 45.5827C51.177 45.5827 50.572 45.381 50.1687 44.7759C39.8848 47.1964 24.963 47.5998 16.8971 46.1879C14.4774 45.7844 7.41975 44.1708 11.4527 40.7417C16.4938 36.3042 30.6091 35.2956 33.6337 32.0683C34.8436 30.6564 31.214 29.4461 30.4074 29.2444C25.3663 27.429 16.4938 26.4205 9.03292 26.8239C8.62963 27.6307 7.82305 28.2359 7.01646 28.2359C5.80658 28.2359 5 27.2273 5 26.0171C5 25.0085 5.80658 24 7.01646 24Z" fill="#83CAE5"/>
<path fill-rule="evenodd" clip-rule="evenodd" d="M6.8951 21.8986C9.12518 18.1534 13.5853 11.7035 13.7881 7.3342C14.1935 -2.44473 -0.200613 -2.44473 0.00212177 7.3342C0.00212177 11.7035 4.66502 18.1534 6.8951 21.8986ZM6.8951 2.96489C9.53065 2.96489 11.558 5.04551 11.558 7.54226C11.558 10.2471 9.53065 12.5358 6.8951 12.5358C4.25955 12.5358 2.2322 10.2471 2.2322 7.54226C2.2322 5.04551 4.25955 2.96489 6.8951 2.96489Z" fill="#83CAE5"/>
<ellipse cx="6.89473" cy="7.54219" rx="3.44649" ry="3.53706" fill="black"/>
<path fill-rule="evenodd" clip-rule="evenodd" d="M52.1045 40.0001C54.3346 36.463 58.7947 29.805 58.9975 25.4357C59.2002 15.8649 44.8061 15.8649 45.2115 25.4357C45.2115 29.805 49.8744 36.463 52.1045 40.0001ZM52.1045 21.0664C54.5373 21.0664 56.7674 23.147 56.7674 25.8518C56.7674 28.5567 54.5373 30.6373 52.1045 30.6373C49.469 30.6373 47.4416 28.5567 47.4416 25.8518C47.4416 23.147 49.469 21.0664 52.1045 21.0664Z" fill="#83CAE5"/>
</svg>
